<?xml version="1.0" encoding="UTF-8" standalone="no"?>
<!DOCTYPE svg PUBLIC "-//W3C//DTD SVG 1.1//EN"
 "http://www.w3.org/Graphics/SVG/1.1/DTD/svg11.dtd">
<!-- Generated by graphviz version 2.47.3 (20210619.1520)
 -->
<!-- Title: G Pages: 1 -->
<svg width="1812pt" height="578pt"
 viewBox="0.00 0.00 1812.20 578.20" xmlns="http://www.w3.org/2000/svg" xmlns:xlink="http://www.w3.org/1999/xlink">
<g id="graph0" class="graph" transform="scale(1 1) rotate(0) translate(21.6 556.6)">
<title>G</title>
<polygon fill="#111111" stroke="transparent" points="-21.6,21.6 -21.6,-556.6 1790.6,-556.6 1790.6,21.6 -21.6,21.6"/>
<!-- ControlPanel/index.js -->
<g id="node1" class="node">
<title>ControlPanel/index.js</title>
<path fill="none" stroke="#c6c5fe" d="M870.83,-146C870.83,-146 737.17,-146 737.17,-146 733.33,-146 729.5,-142.17 729.5,-138.33 729.5,-138.33 729.5,-130.67 729.5,-130.67 729.5,-126.83 733.33,-123 737.17,-123 737.17,-123 870.83,-123 870.83,-123 874.67,-123 878.5,-126.83 878.5,-130.67 878.5,-130.67 878.5,-138.33 878.5,-138.33 878.5,-142.17 874.67,-146 870.83,-146"/>
<text text-anchor="middle" x="804" y="-130.8" font-family="Arial" font-size="14.00" fill="#c6c5fe">ControlPanel/index.js</text>
</g>
<!-- ControlPanel/style.js -->
<g id="node2" class="node">
<title>ControlPanel/style.js</title>
<path fill="none" stroke="#cfffac" d="M1328.83,-146C1328.83,-146 1200.17,-146 1200.17,-146 1196.33,-146 1192.5,-142.17 1192.5,-138.33 1192.5,-138.33 1192.5,-130.67 1192.5,-130.67 1192.5,-126.83 1196.33,-123 1200.17,-123 1200.17,-123 1328.83,-123 1328.83,-123 1332.67,-123 1336.5,-126.83 1336.5,-130.67 1336.5,-130.67 1336.5,-138.33 1336.5,-138.33 1336.5,-142.17 1332.67,-146 1328.83,-146"/>
<text text-anchor="middle" x="1264.5" y="-130.8" font-family="Arial" font-size="14.00" fill="#cfffac">ControlPanel/style.js</text>
</g>
<!-- ControlPanel/index.js&#45;&gt;ControlPanel/style.js -->
<g id="edge1" class="edge">
<title>ControlPanel/index.js&#45;&gt;ControlPanel/style.js</title>
<path fill="none" stroke="#757575" d="M878.67,-134.5C961.61,-134.5 1096.02,-134.5 1182.04,-134.5"/>
<polygon fill="#757575" stroke="#757575" points="1182.28,-138 1192.28,-134.5 1182.28,-131 1182.28,-138"/>
</g>
<!-- ReactNexus.js -->
<g id="node3" class="node">
<title>ReactNexus.js</title>
<path fill="none" stroke="#c6c5fe" d="M294.33,-84C294.33,-84 202.67,-84 202.67,-84 198.83,-84 195,-80.17 195,-76.33 195,-76.33 195,-68.67 195,-68.67 195,-64.83 198.83,-61 202.67,-61 202.67,-61 294.33,-61 294.33,-61 298.17,-61 302,-64.83 302,-68.67 302,-68.67 302,-76.33 302,-76.33 302,-80.17 298.17,-84 294.33,-84"/>
<text text-anchor="middle" x="248.5" y="-68.8" font-family="Arial" font-size="14.00" fill="#c6c5fe">ReactNexus.js</text>
</g>
<!-- ReactNexus.js&#45;&gt;ControlPanel/index.js -->
<g id="edge2" class="edge">
<title>ReactNexus.js&#45;&gt;ControlPanel/index.js</title>
<path fill="none" stroke="#757575" d="M302.14,-81.17C358.96,-90.29 452.19,-104.52 533,-113.5 595.23,-120.41 665.78,-125.82 719.15,-129.41"/>
<polygon fill="#757575" stroke="#757575" points="719.04,-132.91 729.25,-130.08 719.5,-125.93 719.04,-132.91"/>
</g>
<!-- SceneControlInterface/index.js -->
<g id="node4" class="node">
<title>SceneControlInterface/index.js</title>
<path fill="none" stroke="#c6c5fe" d="M899.83,-105C899.83,-105 708.17,-105 708.17,-105 704.33,-105 700.5,-101.17 700.5,-97.33 700.5,-97.33 700.5,-89.67 700.5,-89.67 700.5,-85.83 704.33,-82 708.17,-82 708.17,-82 899.83,-82 899.83,-82 903.67,-82 907.5,-85.83 907.5,-89.67 907.5,-89.67 907.5,-97.33 907.5,-97.33 907.5,-101.17 903.67,-105 899.83,-105"/>
<text text-anchor="middle" x="804" y="-89.8" font-family="Arial" font-size="14.00" fill="#c6c5fe">SceneControlInterface/index.js</text>
</g>
<!-- ReactNexus.js&#45;&gt;SceneControlInterface/index.js -->
<g id="edge3" class="edge">
<title>ReactNexus.js&#45;&gt;SceneControlInterface/index.js</title>
<path fill="none" stroke="#757575" d="M302.07,-74.49C390.7,-77.86 571.74,-84.73 690.17,-89.22"/>
<polygon fill="#757575" stroke="#757575" points="690.24,-92.72 700.36,-89.61 690.5,-85.73 690.24,-92.72"/>
</g>
<!-- ViewNode01/index.js -->
<g id="node5" class="node">
<title>ViewNode01/index.js</title>
<path fill="none" stroke="#c6c5fe" d="M869.83,-64C869.83,-64 738.17,-64 738.17,-64 734.33,-64 730.5,-60.17 730.5,-56.33 730.5,-56.33 730.5,-48.67 730.5,-48.67 730.5,-44.83 734.33,-41 738.17,-41 738.17,-41 869.83,-41 869.83,-41 873.67,-41 877.5,-44.83 877.5,-48.67 877.5,-48.67 877.5,-56.33 877.5,-56.33 877.5,-60.17 873.67,-64 869.83,-64"/>
<text text-anchor="middle" x="804" y="-48.8" font-family="Arial" font-size="14.00" fill="#c6c5fe">ViewNode01/index.js</text>
</g>
<!-- ReactNexus.js&#45;&gt;ViewNode01/index.js -->
<g id="edge4" class="edge">
<title>ReactNexus.js&#45;&gt;ViewNode01/index.js</title>
<path fill="none" stroke="#757575" d="M302.07,-70.6C398.6,-67.11 604.75,-59.66 720.24,-55.49"/>
<polygon fill="#757575" stroke="#757575" points="720.58,-58.98 730.44,-55.12 720.32,-51.99 720.58,-58.98"/>
</g>
<!-- style.js -->
<g id="node6" class="node">
<title>style.js</title>
<path fill="none" stroke="#cfffac" d="M825.83,-23C825.83,-23 782.17,-23 782.17,-23 778.33,-23 774.5,-19.17 774.5,-15.33 774.5,-15.33 774.5,-7.67 774.5,-7.67 774.5,-3.83 778.33,0 782.17,0 782.17,0 825.83,0 825.83,0 829.67,0 833.5,-3.83 833.5,-7.67 833.5,-7.67 833.5,-15.33 833.5,-15.33 833.5,-19.17 829.67,-23 825.83,-23"/>
<text text-anchor="middle" x="804" y="-7.8" font-family="Arial" font-size="14.00" fill="#cfffac">style.js</text>
</g>
<!-- ReactNexus.js&#45;&gt;style.js -->
<g id="edge5" class="edge">
<title>ReactNexus.js&#45;&gt;style.js</title>
<path fill="none" stroke="#757575" d="M302.13,-63.77C358.95,-54.6 452.17,-40.33 533,-31.5 614.96,-22.55 711.37,-16.47 763.95,-13.54"/>
<polygon fill="#757575" stroke="#757575" points="764.38,-17.02 774.17,-12.97 763.99,-10.03 764.38,-17.02"/>
</g>
<!-- SceneControlInterface/geometry/Cube/index.js -->
<g id="node20" class="node">
<title>SceneControlInterface/geometry/Cube/index.js</title>
<path fill="none" stroke="#c6c5fe" d="M1410.33,-105C1410.33,-105 1118.67,-105 1118.67,-105 1114.83,-105 1111,-101.17 1111,-97.33 1111,-97.33 1111,-89.67 1111,-89.67 1111,-85.83 1114.83,-82 1118.67,-82 1118.67,-82 1410.33,-82 1410.33,-82 1414.17,-82 1418,-85.83 1418,-89.67 1418,-89.67 1418,-97.33 1418,-97.33 1418,-101.17 1414.17,-105 1410.33,-105"/>
<text text-anchor="middle" x="1264.5" y="-89.8" font-family="Arial" font-size="14.00" fill="#c6c5fe">SceneControlInterface/geometry/Cube/index.js</text>
</g>
<!-- SceneControlInterface/index.js&#45;&gt;SceneControlInterface/geometry/Cube/index.js -->
<g id="edge15" class="edge">
<title>SceneControlInterface/index.js&#45;&gt;SceneControlInterface/geometry/Cube/index.js</title>
<path fill="none" stroke="#757575" d="M907.61,-93.5C964.37,-93.5 1036.21,-93.5 1100.46,-93.5"/>
<polygon fill="#757575" stroke="#757575" points="1100.71,-97 1110.71,-93.5 1100.71,-90 1100.71,-97"/>
</g>
<!-- ViewNode01/Canvas/index.js -->
<g id="node26" class="node">
<title>ViewNode01/Canvas/index.js</title>
<path fill="none" stroke="#c6c5fe" d="M1355.83,-64C1355.83,-64 1173.17,-64 1173.17,-64 1169.33,-64 1165.5,-60.17 1165.5,-56.33 1165.5,-56.33 1165.5,-48.67 1165.5,-48.67 1165.5,-44.83 1169.33,-41 1173.17,-41 1173.17,-41 1355.83,-41 1355.83,-41 1359.67,-41 1363.5,-44.83 1363.5,-48.67 1363.5,-48.67 1363.5,-56.33 1363.5,-56.33 1363.5,-60.17 1359.67,-64 1355.83,-64"/>
<text text-anchor="middle" x="1264.5" y="-48.8" font-family="Arial" font-size="14.00" fill="#c6c5fe">ViewNode01/Canvas/index.js</text>
</g>
<!-- ViewNode01/index.js&#45;&gt;ViewNode01/Canvas/index.js -->
<g id="edge17" class="edge">
<title>ViewNode01/index.js&#45;&gt;ViewNode01/Canvas/index.js</title>
<path fill="none" stroke="#757575" d="M877.65,-52.5C952.34,-52.5 1069.51,-52.5 1155.15,-52.5"/>
<polygon fill="#757575" stroke="#757575" points="1155.17,-56 1165.17,-52.5 1155.17,-49 1155.17,-56"/>
</g>
<!-- SceneControlInterface/emitterStuff/1&#45;simple&#45;emitter/app.js -->
<g id="node7" class="node">
<title>SceneControlInterface/emitterStuff/1&#45;simple&#45;emitter/app.js</title>
<path fill="none" stroke="#c6c5fe" d="M428.83,-207C428.83,-207 68.17,-207 68.17,-207 64.33,-207 60.5,-203.17 60.5,-199.33 60.5,-199.33 60.5,-191.67 60.5,-191.67 60.5,-187.83 64.33,-184 68.17,-184 68.17,-184 428.83,-184 428.83,-184 432.67,-184 436.5,-187.83 436.5,-191.67 436.5,-191.67 436.5,-199.33 436.5,-199.33 436.5,-203.17 432.67,-207 428.83,-207"/>
<text text-anchor="middle" x="248.5" y="-191.8" font-family="Arial" font-size="14.00" fill="#c6c5fe">SceneControlInterface/emitterStuff/1&#45;simple&#45;emitter/app.js</text>
</g>
<!-- SceneControlInterface/emitterStuff/1&#45;simple&#45;emitter/constants.js -->
<g id="node8" class="node">
<title>SceneControlInterface/emitterStuff/1&#45;simple&#45;emitter/constants.js</title>
<path fill="none" stroke="#cfffac" d="M1002.83,-228C1002.83,-228 605.17,-228 605.17,-228 601.33,-228 597.5,-224.17 597.5,-220.33 597.5,-220.33 597.5,-212.67 597.5,-212.67 597.5,-208.83 601.33,-205 605.17,-205 605.17,-205 1002.83,-205 1002.83,-205 1006.67,-205 1010.5,-208.83 1010.5,-212.67 1010.5,-212.67 1010.5,-220.33 1010.5,-220.33 1010.5,-224.17 1006.67,-228 1002.83,-228"/>
<text text-anchor="middle" x="804" y="-212.8" font-family="Arial" font-size="14.00" fill="#cfffac">SceneControlInterface/emitterStuff/1&#45;simple&#45;emitter/constants.js</text>
</g>
<!-- SceneControlInterface/emitterStuff/1&#45;simple&#45;emitter/app.js&#45;&gt;SceneControlInterface/emitterStuff/1&#45;simple&#45;emitter/constants.js -->
<g id="edge6" class="edge">
<title>SceneControlInterface/emitterStuff/1&#45;simple&#45;emitter/app.js&#45;&gt;SceneControlInterface/emitterStuff/1&#45;simple&#45;emitter/constants.js</title>
<path fill="none" stroke="#757575" d="M436.5,-202.6C484.93,-204.43 537.47,-206.43 587.25,-208.31"/>
<polygon fill="#757575" stroke="#757575" points="587.37,-211.82 597.49,-208.7 587.63,-204.83 587.37,-211.82"/>
</g>
<!-- SceneControlInterface/emitterStuff/1&#45;simple&#45;emitter/emitter.js -->
<g id="node9" class="node">
<title>SceneControlInterface/emitterStuff/1&#45;simple&#45;emitter/emitter.js</title>
<path fill="none" stroke="#cfffac" d="M993.83,-187C993.83,-187 614.17,-187 614.17,-187 610.33,-187 606.5,-183.17 606.5,-179.33 606.5,-179.33 606.5,-171.67 606.5,-171.67 606.5,-167.83 610.33,-164 614.17,-164 614.17,-164 993.83,-164 993.83,-164 997.67,-164 1001.5,-167.83 1001.5,-171.67 1001.5,-171.67 1001.5,-179.33 1001.5,-179.33 1001.5,-183.17 997.67,-187 993.83,-187"/>
<text text-anchor="middle" x="804" y="-171.8" font-family="Arial" font-size="14.00" fill="#cfffac">SceneControlInterface/emitterStuff/1&#45;simple&#45;emitter/emitter.js</text>
</g>
<!-- SceneControlInterface/emitterStuff/1&#45;simple&#45;emitter/app.js&#45;&gt;SceneControlInterface/emitterStuff/1&#45;simple&#45;emitter/emitter.js -->
<g id="edge7" class="edge">
<title>SceneControlInterface/emitterStuff/1&#45;simple&#45;emitter/app.js&#45;&gt;SceneControlInterface/emitterStuff/1&#45;simple&#45;emitter/emitter.js</title>
<path fill="none" stroke="#757575" d="M436.5,-188.74C487.79,-186.89 543.68,-184.87 596.02,-182.98"/>
<polygon fill="#757575" stroke="#757575" points="596.22,-186.47 606.09,-182.62 595.97,-179.48 596.22,-186.47"/>
</g>
<!-- SceneControlInterface/emitterStuff/2&#45;using&#45;native&#45;node&#45;events/app.js -->
<g id="node10" class="node">
<title>SceneControlInterface/emitterStuff/2&#45;using&#45;native&#45;node&#45;events/app.js</title>
<path fill="none" stroke="#c6c5fe" d="M463.83,-269C463.83,-269 33.17,-269 33.17,-269 29.33,-269 25.5,-265.17 25.5,-261.33 25.5,-261.33 25.5,-253.67 25.5,-253.67 25.5,-249.83 29.33,-246 33.17,-246 33.17,-246 463.83,-246 463.83,-246 467.67,-246 471.5,-249.83 471.5,-253.67 471.5,-253.67 471.5,-261.33 471.5,-261.33 471.5,-265.17 467.67,-269 463.83,-269"/>
<text text-anchor="middle" x="248.5" y="-253.8" font-family="Arial" font-size="14.00" fill="#c6c5fe">SceneControlInterface/emitterStuff/2&#45;using&#45;native&#45;node&#45;events/app.js</text>
</g>
<!-- SceneControlInterface/emitterStuff/2&#45;using&#45;native&#45;node&#45;events/constants.js -->
<g id="node11" class="node">
<title>SceneControlInterface/emitterStuff/2&#45;using&#45;native&#45;node&#45;events/constants.js</title>
<path fill="none" stroke="#cfffac" d="M1037.33,-269C1037.33,-269 570.67,-269 570.67,-269 566.83,-269 563,-265.17 563,-261.33 563,-261.33 563,-253.67 563,-253.67 563,-249.83 566.83,-246 570.67,-246 570.67,-246 1037.33,-246 1037.33,-246 1041.17,-246 1045,-249.83 1045,-253.67 1045,-253.67 1045,-261.33 1045,-261.33 1045,-265.17 1041.17,-269 1037.33,-269"/>
<text text-anchor="middle" x="804" y="-253.8" font-family="Arial" font-size="14.00" fill="#cfffac">SceneControlInterface/emitterStuff/2&#45;using&#45;native&#45;node&#45;events/constants.js</text>
</g>
<!-- SceneControlInterface/emitterStuff/2&#45;using&#45;native&#45;node&#45;events/app.js&#45;&gt;SceneControlInterface/emitterStuff/2&#45;using&#45;native&#45;node&#45;events/constants.js -->
<g id="edge8" class="edge">
<title>SceneControlInterface/emitterStuff/2&#45;using&#45;native&#45;node&#45;events/app.js&#45;&gt;SceneControlInterface/emitterStuff/2&#45;using&#45;native&#45;node&#45;events/constants.js</title>
<path fill="none" stroke="#757575" d="M471.84,-257.5C498.36,-257.5 525.57,-257.5 552.45,-257.5"/>
<polygon fill="#757575" stroke="#757575" points="552.74,-261 562.74,-257.5 552.74,-254 552.74,-261"/>
</g>
<!-- SceneControlInterface/emitterStuff/2&#45;using&#45;native&#45;node&#45;events/emitter.js -->
<g id="node12" class="node">
<title>SceneControlInterface/emitterStuff/2&#45;using&#45;native&#45;node&#45;events/emitter.js</title>
<path fill="none" stroke="#cfffac" d="M472.83,-310C472.83,-310 24.17,-310 24.17,-310 20.33,-310 16.5,-306.17 16.5,-302.33 16.5,-302.33 16.5,-294.67 16.5,-294.67 16.5,-290.83 20.33,-287 24.17,-287 24.17,-287 472.83,-287 472.83,-287 476.67,-287 480.5,-290.83 480.5,-294.67 480.5,-294.67 480.5,-302.33 480.5,-302.33 480.5,-306.17 476.67,-310 472.83,-310"/>
<text text-anchor="middle" x="248.5" y="-294.8" font-family="Arial" font-size="14.00" fill="#cfffac">SceneControlInterface/emitterStuff/2&#45;using&#45;native&#45;node&#45;events/emitter.js</text>
</g>
<!-- SceneControlInterface/emitterStuff/3&#45;inheriting&#45;from&#45;events/app.js -->
<g id="node13" class="node">
<title>SceneControlInterface/emitterStuff/3&#45;inheriting&#45;from&#45;events/app.js</title>
<path fill="none" stroke="#c6c5fe" d="M452.83,-351C452.83,-351 44.17,-351 44.17,-351 40.33,-351 36.5,-347.17 36.5,-343.33 36.5,-343.33 36.5,-335.67 36.5,-335.67 36.5,-331.83 40.33,-328 44.17,-328 44.17,-328 452.83,-328 452.83,-328 456.67,-328 460.5,-331.83 460.5,-335.67 460.5,-335.67 460.5,-343.33 460.5,-343.33 460.5,-347.17 456.67,-351 452.83,-351"/>
<text text-anchor="middle" x="248.5" y="-335.8" font-family="Arial" font-size="14.00" fill="#c6c5fe">SceneControlInterface/emitterStuff/3&#45;inheriting&#45;from&#45;events/app.js</text>
</g>
<!-- SceneControlInterface/emitterStuff/3&#45;inheriting&#45;from&#45;events/constants.js -->
<g id="node14" class="node">
<title>SceneControlInterface/emitterStuff/3&#45;inheriting&#45;from&#45;events/constants.js</title>
<path fill="none" stroke="#cfffac" d="M1026.83,-371C1026.83,-371 581.17,-371 581.17,-371 577.33,-371 573.5,-367.17 573.5,-363.33 573.5,-363.33 573.5,-355.67 573.5,-355.67 573.5,-351.83 577.33,-348 581.17,-348 581.17,-348 1026.83,-348 1026.83,-348 1030.67,-348 1034.5,-351.83 1034.5,-355.67 1034.5,-355.67 1034.5,-363.33 1034.5,-363.33 1034.5,-367.17 1030.67,-371 1026.83,-371"/>
<text text-anchor="middle" x="804" y="-355.8" font-family="Arial" font-size="14.00" fill="#cfffac">SceneControlInterface/emitterStuff/3&#45;inheriting&#45;from&#45;events/constants.js</text>
</g>
<!-- SceneControlInterface/emitterStuff/3&#45;inheriting&#45;from&#45;events/app.js&#45;&gt;SceneControlInterface/emitterStuff/3&#45;inheriting&#45;from&#45;events/constants.js -->
<g id="edge9" class="edge">
<title>SceneControlInterface/emitterStuff/3&#45;inheriting&#45;from&#45;events/app.js&#45;&gt;SceneControlInterface/emitterStuff/3&#45;inheriting&#45;from&#45;events/constants.js</title>
<path fill="none" stroke="#757575" d="M460.73,-347.13C494.22,-348.34 529.06,-349.6 563.15,-350.83"/>
<polygon fill="#757575" stroke="#757575" points="563.1,-354.33 573.22,-351.2 563.35,-347.34 563.1,-354.33"/>
</g>
<!-- SceneControlInterface/emitterStuff/3&#45;inheriting&#45;from&#45;events/newEvents.js -->
<g id="node15" class="node">
<title>SceneControlInterface/emitterStuff/3&#45;inheriting&#45;from&#45;events/newEvents.js</title>
<path fill="none" stroke="#cfffac" d="M1030.83,-330C1030.83,-330 577.17,-330 577.17,-330 573.33,-330 569.5,-326.17 569.5,-322.33 569.5,-322.33 569.5,-314.67 569.5,-314.67 569.5,-310.83 573.33,-307 577.17,-307 577.17,-307 1030.83,-307 1030.83,-307 1034.67,-307 1038.5,-310.83 1038.5,-314.67 1038.5,-314.67 1038.5,-322.33 1038.5,-322.33 1038.5,-326.17 1034.67,-330 1030.83,-330"/>
<text text-anchor="middle" x="804" y="-314.8" font-family="Arial" font-size="14.00" fill="#cfffac">SceneControlInterface/emitterStuff/3&#45;inheriting&#45;from&#45;events/newEvents.js</text>
</g>
<!-- SceneControlInterface/emitterStuff/3&#45;inheriting&#45;from&#45;events/app.js&#45;&gt;SceneControlInterface/emitterStuff/3&#45;inheriting&#45;from&#45;events/newEvents.js -->
<g id="edge10" class="edge">
<title>SceneControlInterface/emitterStuff/3&#45;inheriting&#45;from&#45;events/app.js&#45;&gt;SceneControlInterface/emitterStuff/3&#45;inheriting&#45;from&#45;events/newEvents.js</title>
<path fill="none" stroke="#757575" d="M460.73,-331.49C492.83,-330.27 526.18,-329 558.9,-327.76"/>
<polygon fill="#757575" stroke="#757575" points="559.18,-331.25 569.04,-327.38 558.91,-324.26 559.18,-331.25"/>
</g>
<!-- SceneControlInterface/emitterStuff/4&#45;complete&#45;inheritance&#45;from&#45;events/app.js -->
<g id="node16" class="node">
<title>SceneControlInterface/emitterStuff/4&#45;complete&#45;inheritance&#45;from&#45;events/app.js</title>
<path fill="none" stroke="#c6c5fe" d="M489.33,-412C489.33,-412 7.67,-412 7.67,-412 3.83,-412 0,-408.17 0,-404.33 0,-404.33 0,-396.67 0,-396.67 0,-392.83 3.83,-389 7.67,-389 7.67,-389 489.33,-389 489.33,-389 493.17,-389 497,-392.83 497,-396.67 497,-396.67 497,-404.33 497,-404.33 497,-408.17 493.17,-412 489.33,-412"/>
<text text-anchor="middle" x="248.5" y="-396.8" font-family="Arial" font-size="14.00" fill="#c6c5fe">SceneControlInterface/emitterStuff/4&#45;complete&#45;inheritance&#45;from&#45;events/app.js</text>
</g>
<!-- SceneControlInterface/emitterStuff/4&#45;complete&#45;inheritance&#45;from&#45;events/constants.js -->
<g id="node17" class="node">
<title>SceneControlInterface/emitterStuff/4&#45;complete&#45;inheritance&#45;from&#45;events/constants.js</title>
<path fill="none" stroke="#cfffac" d="M1063.33,-453C1063.33,-453 544.67,-453 544.67,-453 540.83,-453 537,-449.17 537,-445.33 537,-445.33 537,-437.67 537,-437.67 537,-433.83 540.83,-430 544.67,-430 544.67,-430 1063.33,-430 1063.33,-430 1067.17,-430 1071,-433.83 1071,-437.67 1071,-437.67 1071,-445.33 1071,-445.33 1071,-449.17 1067.17,-453 1063.33,-453"/>
<text text-anchor="middle" x="804" y="-437.8" font-family="Arial" font-size="14.00" fill="#cfffac">SceneControlInterface/emitterStuff/4&#45;complete&#45;inheritance&#45;from&#45;events/constants.js</text>
</g>
<!-- SceneControlInterface/emitterStuff/4&#45;complete&#45;inheritance&#45;from&#45;events/app.js&#45;&gt;SceneControlInterface/emitterStuff/4&#45;complete&#45;inheritance&#45;from&#45;events/constants.js -->
<g id="edge11" class="edge">
<title>SceneControlInterface/emitterStuff/4&#45;complete&#45;inheritance&#45;from&#45;events/app.js&#45;&gt;SceneControlInterface/emitterStuff/4&#45;complete&#45;inheritance&#45;from&#45;events/constants.js</title>
<path fill="none" stroke="#757575" d="M404.78,-412C477.17,-417.36 563.38,-423.75 637.05,-429.21"/>
<polygon fill="#757575" stroke="#757575" points="637.13,-432.72 647.36,-429.97 637.64,-425.74 637.13,-432.72"/>
</g>
<!-- SceneControlInterface/emitterStuff/4&#45;complete&#45;inheritance&#45;from&#45;events/newEvents.js -->
<g id="node18" class="node">
<title>SceneControlInterface/emitterStuff/4&#45;complete&#45;inheritance&#45;from&#45;events/newEvents.js</title>
<path fill="none" stroke="#cfffac" d="M1067.33,-412C1067.33,-412 540.67,-412 540.67,-412 536.83,-412 533,-408.17 533,-404.33 533,-404.33 533,-396.67 533,-396.67 533,-392.83 536.83,-389 540.67,-389 540.67,-389 1067.33,-389 1067.33,-389 1071.17,-389 1075,-392.83 1075,-396.67 1075,-396.67 1075,-404.33 1075,-404.33 1075,-408.17 1071.17,-412 1067.33,-412"/>
<text text-anchor="middle" x="804" y="-396.8" font-family="Arial" font-size="14.00" fill="#cfffac">SceneControlInterface/emitterStuff/4&#45;complete&#45;inheritance&#45;from&#45;events/newEvents.js</text>
</g>
<!-- SceneControlInterface/emitterStuff/4&#45;complete&#45;inheritance&#45;from&#45;events/app.js&#45;&gt;SceneControlInterface/emitterStuff/4&#45;complete&#45;inheritance&#45;from&#45;events/newEvents.js -->
<g id="edge12" class="edge">
<title>SceneControlInterface/emitterStuff/4&#45;complete&#45;inheritance&#45;from&#45;events/app.js&#45;&gt;SceneControlInterface/emitterStuff/4&#45;complete&#45;inheritance&#45;from&#45;events/newEvents.js</title>
<path fill="none" stroke="#757575" d="M497.11,-400.5C505.59,-400.5 514.11,-400.5 522.63,-400.5"/>
<polygon fill="#757575" stroke="#757575" points="522.64,-404 532.64,-400.5 522.64,-397 522.64,-404"/>
</g>
<!-- SceneControlInterface/emitterStuff/objectProperties_functions_arrays.js -->
<g id="node19" class="node">
<title>SceneControlInterface/emitterStuff/objectProperties_functions_arrays.js</title>
<path fill="none" stroke="#cfffac" d="M471.33,-453C471.33,-453 25.67,-453 25.67,-453 21.83,-453 18,-449.17 18,-445.33 18,-445.33 18,-437.67 18,-437.67 18,-433.83 21.83,-430 25.67,-430 25.67,-430 471.33,-430 471.33,-430 475.17,-430 479,-433.83 479,-437.67 479,-437.67 479,-445.33 479,-445.33 479,-449.17 475.17,-453 471.33,-453"/>
<text text-anchor="middle" x="248.5" y="-437.8" font-family="Arial" font-size="14.00" fill="#cfffac">SceneControlInterface/emitterStuff/objectProperties_functions_arrays.js</text>
</g>
<!-- SceneControlInterface/geometry/Cube/shader.js -->
<g id="node21" class="node">
<title>SceneControlInterface/geometry/Cube/shader.js</title>
<path fill="none" stroke="#cfffac" d="M1761.33,-105C1761.33,-105 1461.67,-105 1461.67,-105 1457.83,-105 1454,-101.17 1454,-97.33 1454,-97.33 1454,-89.67 1454,-89.67 1454,-85.83 1457.83,-82 1461.67,-82 1461.67,-82 1761.33,-82 1761.33,-82 1765.17,-82 1769,-85.83 1769,-89.67 1769,-89.67 1769,-97.33 1769,-97.33 1769,-101.17 1765.17,-105 1761.33,-105"/>
<text text-anchor="middle" x="1611.5" y="-89.8" font-family="Arial" font-size="14.00" fill="#cfffac">SceneControlInterface/geometry/Cube/shader.js</text>
</g>
<!-- SceneControlInterface/geometry/Cube/index.js&#45;&gt;SceneControlInterface/geometry/Cube/shader.js -->
<g id="edge13" class="edge">
<title>SceneControlInterface/geometry/Cube/index.js&#45;&gt;SceneControlInterface/geometry/Cube/shader.js</title>
<path fill="none" stroke="#757575" d="M1418.08,-93.5C1426.63,-93.5 1435.26,-93.5 1443.86,-93.5"/>
<polygon fill="#757575" stroke="#757575" points="1443.95,-97 1453.95,-93.5 1443.95,-90 1443.95,-97"/>
</g>
<!-- SceneControlInterface/geometry/Plane/index.js -->
<g id="node22" class="node">
<title>SceneControlInterface/geometry/Plane/index.js</title>
<path fill="none" stroke="#c6c5fe" d="M395.33,-494C395.33,-494 101.67,-494 101.67,-494 97.83,-494 94,-490.17 94,-486.33 94,-486.33 94,-478.67 94,-478.67 94,-474.83 97.83,-471 101.67,-471 101.67,-471 395.33,-471 395.33,-471 399.17,-471 403,-474.83 403,-478.67 403,-478.67 403,-486.33 403,-486.33 403,-490.17 399.17,-494 395.33,-494"/>
<text text-anchor="middle" x="248.5" y="-478.8" font-family="Arial" font-size="14.00" fill="#c6c5fe">SceneControlInterface/geometry/Plane/index.js</text>
</g>
<!-- SceneControlInterface/geometry/Plane/shader.js -->
<g id="node23" class="node">
<title>SceneControlInterface/geometry/Plane/shader.js</title>
<path fill="none" stroke="#cfffac" d="M955.33,-494C955.33,-494 652.67,-494 652.67,-494 648.83,-494 645,-490.17 645,-486.33 645,-486.33 645,-478.67 645,-478.67 645,-474.83 648.83,-471 652.67,-471 652.67,-471 955.33,-471 955.33,-471 959.17,-471 963,-474.83 963,-478.67 963,-478.67 963,-486.33 963,-486.33 963,-490.17 959.17,-494 955.33,-494"/>
<text text-anchor="middle" x="804" y="-478.8" font-family="Arial" font-size="14.00" fill="#cfffac">SceneControlInterface/geometry/Plane/shader.js</text>
</g>
<!-- SceneControlInterface/geometry/Plane/index.js&#45;&gt;SceneControlInterface/geometry/Plane/shader.js -->
<g id="edge14" class="edge">
<title>SceneControlInterface/geometry/Plane/index.js&#45;&gt;SceneControlInterface/geometry/Plane/shader.js</title>
<path fill="none" stroke="#757575" d="M403.31,-482.5C475.11,-482.5 560.77,-482.5 634.34,-482.5"/>
<polygon fill="#757575" stroke="#757575" points="634.63,-486 644.63,-482.5 634.63,-479 634.63,-486"/>
</g>
<!-- SceneControlInterface/geometry/TestThing.js -->
<g id="node24" class="node">
<title>SceneControlInterface/geometry/TestThing.js</title>
<path fill="none" stroke="#cfffac" d="M389.33,-535C389.33,-535 107.67,-535 107.67,-535 103.83,-535 100,-531.17 100,-527.33 100,-527.33 100,-519.67 100,-519.67 100,-515.83 103.83,-512 107.67,-512 107.67,-512 389.33,-512 389.33,-512 393.17,-512 397,-515.83 397,-519.67 397,-519.67 397,-527.33 397,-527.33 397,-531.17 393.17,-535 389.33,-535"/>
<text text-anchor="middle" x="248.5" y="-519.8" font-family="Arial" font-size="14.00" fill="#cfffac">SceneControlInterface/geometry/TestThing.js</text>
</g>
<!-- ViewNode01/Canvas/Uniforms/index.js -->
<g id="node25" class="node">
<title>ViewNode01/Canvas/Uniforms/index.js</title>
<path fill="none" stroke="#cfffac" d="M1732.83,-64C1732.83,-64 1490.17,-64 1490.17,-64 1486.33,-64 1482.5,-60.17 1482.5,-56.33 1482.5,-56.33 1482.5,-48.67 1482.5,-48.67 1482.5,-44.83 1486.33,-41 1490.17,-41 1490.17,-41 1732.83,-41 1732.83,-41 1736.67,-41 1740.5,-44.83 1740.5,-48.67 1740.5,-48.67 1740.5,-56.33 1740.5,-56.33 1740.5,-60.17 1736.67,-64 1732.83,-64"/>
<text text-anchor="middle" x="1611.5" y="-48.8" font-family="Arial" font-size="14.00" fill="#cfffac">ViewNode01/Canvas/Uniforms/index.js</text>
</g>
<!-- ViewNode01/Canvas/index.js&#45;&gt;ViewNode01/Canvas/Uniforms/index.js -->
<g id="edge16" class="edge">
<title>ViewNode01/Canvas/index.js&#45;&gt;ViewNode01/Canvas/Uniforms/index.js</title>
<path fill="none" stroke="#757575" d="M1363.9,-52.5C1397.58,-52.5 1435.91,-52.5 1472.15,-52.5"/>
<polygon fill="#757575" stroke="#757575" points="1472.31,-56 1482.31,-52.5 1472.31,-49 1472.31,-56"/>
</g>
</g>
</svg>
